<?xml version="1.0" encoding="UTF-8"?>
<svg xmlns="http://www.w3.org/2000/svg" xmlns:xlink="http://www.w3.org/1999/xlink" width="45pt" height="45pt" viewBox="0 0 45 45" version="1.1">
<g id="surface1">
<path style=" stroke:none;fill-rule:nonzero;fill:rgb(0%,0%,0%);fill-opacity:1;" d="M 40.605469 33.925781 C 41.089844 33.925781 41.484375 33.53125 41.484375 33.046875 C 41.484375 32.5625 41.089844 32.167969 40.605469 32.167969 C 40.121094 32.167969 39.726562 32.5625 39.726562 33.046875 C 39.726562 33.53125 40.121094 33.925781 40.605469 33.925781 Z M 40.605469 33.925781 "/>
<path style=" stroke:none;fill-rule:nonzero;fill:rgb(0%,0%,0%);fill-opacity:1;" d="M 40.605469 30.410156 C 41.089844 30.410156 41.484375 30.015625 41.484375 29.53125 L 41.484375 22.5 C 41.484375 22.015625 41.089844 21.621094 40.605469 21.621094 C 40.121094 21.621094 39.726562 22.015625 39.726562 22.5 L 39.726562 29.53125 C 39.726562 30.015625 40.121094 30.410156 40.605469 30.410156 Z M 40.605469 30.410156 "/>
<path style=" stroke:none;fill-rule:nonzero;fill:rgb(0%,0%,0%);fill-opacity:1;" d="M 0.878906 32.167969 L 1.757812 32.167969 L 1.757812 44.121094 C 1.757812 44.605469 2.152344 45 2.636719 45 L 42.363281 45 C 43.816406 45 45 43.816406 45 42.363281 L 45 9.667969 C 45 9.183594 44.605469 8.789062 44.121094 8.789062 L 37.441406 8.789062 L 37.441406 7.910156 C 37.441406 3.546875 33.894531 0 29.53125 0 C 25.179688 0 21.621094 3.523438 21.621094 7.910156 L 21.621094 8.789062 L 14.941406 8.789062 C 14.457031 8.789062 14.0625 9.183594 14.0625 9.667969 L 14.0625 18.984375 C 13.203125 19.632812 12.609375 20.578125 12.394531 21.625 C 12.363281 21.625 12.335938 21.621094 12.304688 21.621094 C 12.273438 21.621094 12.246094 21.625 12.21875 21.625 C 11.808594 19.621094 10.035156 18.105469 7.910156 18.105469 C 5.488281 18.105469 3.515625 20.078125 3.515625 22.5 C 3.515625 23.488281 3.84375 24.402344 4.398438 25.136719 L 0.878906 25.136719 C 0.394531 25.136719 0 25.53125 0 26.015625 L 0 31.289062 C 0 31.773438 0.394531 32.167969 0.878906 32.167969 Z M 3.515625 32.167969 L 7.910156 32.167969 L 7.910156 43.242188 L 3.515625 43.242188 Z M 9.667969 32.167969 L 14.941406 32.167969 L 14.941406 43.242188 L 9.667969 43.242188 Z M 21.09375 43.242188 C 19.207031 43.242188 18.757812 43.242188 16.699219 43.242188 L 16.699219 32.167969 L 21.09375 32.167969 Z M 16.699219 30.410156 L 16.699219 26.894531 L 22.851562 26.894531 L 22.851562 30.410156 Z M 16.699219 25.136719 C 16.667969 25.136719 16.640625 25.136719 16.609375 25.132812 C 16.480469 24.496094 16.210938 23.898438 15.820312 23.378906 L 15.820312 20.015625 C 16.101562 19.914062 16.398438 19.863281 16.699219 19.863281 C 18.152344 19.863281 19.335938 21.046875 19.335938 22.5 C 19.335938 23.953125 18.152344 25.136719 16.699219 25.136719 Z M 12.253906 23.378906 L 13.015625 23.476562 C 13.824219 23.703125 14.5 24.316406 14.792969 25.136719 L 9.820312 25.136719 C 10.183594 24.121094 11.132812 23.402344 12.253906 23.378906 Z M 14.941406 26.894531 L 14.941406 30.410156 L 9.667969 30.410156 L 9.667969 26.894531 Z M 42.363281 43.242188 L 22.851562 43.242188 L 22.851562 39.726562 L 43.242188 39.726562 L 43.242188 42.363281 C 43.242188 42.847656 42.847656 43.242188 42.363281 43.242188 Z M 23.378906 7.910156 C 23.378906 4.515625 26.125 1.757812 29.53125 1.757812 C 32.921875 1.757812 35.683594 4.519531 35.683594 7.910156 L 35.683594 8.789062 L 23.378906 8.789062 Z M 21.621094 10.546875 L 21.621094 14.589844 L 20.742188 14.589844 C 20.257812 14.589844 19.863281 14.984375 19.863281 15.46875 C 19.863281 15.953125 20.257812 16.347656 20.742188 16.347656 L 24.257812 16.347656 C 24.742188 16.347656 25.136719 15.953125 25.136719 15.46875 C 25.136719 14.984375 24.742188 14.589844 24.257812 14.589844 L 23.378906 14.589844 L 23.378906 10.546875 L 35.683594 10.546875 L 35.683594 14.589844 L 34.804688 14.589844 C 34.320312 14.589844 33.925781 14.984375 33.925781 15.46875 C 33.925781 15.953125 34.320312 16.347656 34.804688 16.347656 L 38.320312 16.347656 C 38.804688 16.347656 39.199219 15.953125 39.199219 15.46875 C 39.199219 14.984375 38.804688 14.589844 38.320312 14.589844 L 37.441406 14.589844 L 37.441406 10.546875 L 43.242188 10.546875 L 43.242188 37.96875 L 22.851562 37.96875 L 22.851562 32.167969 L 23.730469 32.167969 C 24.214844 32.167969 24.609375 31.773438 24.609375 31.289062 L 24.609375 26.015625 C 24.609375 25.53125 24.214844 25.136719 23.730469 25.136719 L 20.210938 25.136719 C 20.765625 24.402344 21.09375 23.488281 21.09375 22.5 C 21.09375 20.078125 19.121094 18.105469 16.699219 18.105469 C 16.402344 18.105469 16.109375 18.136719 15.820312 18.195312 L 15.820312 10.546875 Z M 5.273438 22.5 C 5.273438 21.046875 6.457031 19.863281 7.910156 19.863281 C 9.195312 19.863281 10.269531 20.789062 10.5 22.007812 C 9.222656 22.585938 8.285156 23.757812 8 25.132812 C 7.972656 25.136719 7.941406 25.136719 7.910156 25.136719 C 6.457031 25.136719 5.273438 23.953125 5.273438 22.5 Z M 1.757812 26.894531 L 7.910156 26.894531 L 7.910156 30.410156 L 1.757812 30.410156 Z M 1.757812 26.894531 "/>
</g>
</svg>
